<svg xmlns="http://www.w3.org/2000/svg" xmlns:xlink="http://www.w3.org/1999/xlink" viewBox="0 0 142.74 145.73"><defs><linearGradient id="a" y1="72.87" x2="142.74" y2="72.87" gradientUnits="userSpaceOnUse"><stop offset="0" stop-color="#ffe75a"/><stop offset="1" stop-color="#f4b821"/></linearGradient></defs><path d="M137.91,108.94l-25.47,9.23a6.31,6.31,0,0,0-3.06,2.38L94.19,143a6.28,6.28,0,0,1-8.47,1.83l-23.1-14.16a6.27,6.27,0,0,0-3.76-.91l-27,2.11a6.28,6.28,0,0,1-6.71-5.48L21.81,99.48A6.3,6.3,0,0,0,20.17,96L1.69,76.17a6.27,6.27,0,0,1,.1-8.67L20.73,48.14a6.23,6.23,0,0,0,1.72-3.47l4-26.8a6.27,6.27,0,0,1,6.84-5.32l27,2.73A6.21,6.21,0,0,0,64,14.46L87.41.85a6.27,6.27,0,0,1,8.42,2L110.5,25.66a6.23,6.23,0,0,0,3,2.45l25.24,9.82a6.27,6.27,0,0,1,3.67,7.85l-8.67,25.67a6.31,6.31,0,0,0,0,3.87l8.06,25.86A6.27,6.27,0,0,1,137.91,108.94Z" fill="url(#a)"/></svg>