<svg xmlns="http://www.w3.org/2000/svg" width="156.21" height="300" viewBox="0 0 156.21 300"><title>tama</title><path d="M97.8,258.65c-6.61-.35-9.93,12.77-7.79,21.77s4.08,13.87,7.16,14.07,4.4-11.23,4.84-18.61S104.4,259,97.8,258.65Z" fill="#fff7f1"/><path d="M97.56,297H97c-4.77-.31-7.06-6.09-9.42-16-1.78-7.49-.14-17,3.73-21.64a7.87,7.87,0,0,1,6.61-3.18,6.81,6.81,0,0,1,5,2.3c2.8,3.22,2.32,8.86,1.85,14.31-.1,1.14-.2,2.21-.26,3.25-1,16.7-3.75,19.13-4.65,19.92A3.93,3.93,0,0,1,97.56,297Zm-.23-35.83a3.25,3.25,0,0,0-2.19,1.39C92.26,266,91,273.91,92.43,279.84c.78,3.31,2.69,10.65,4.42,12,.87-1.57,2.12-6.62,2.68-16.08.07-1.1.17-2.26.27-3.38.34-4,.77-9-.65-10.63a1.9,1.9,0,0,0-1.49-.59h0A2,2,0,0,0,97.33,261.14Z" fill="#71695d"/><path d="M82.73,260.13c-6.61-.37-9.93,12.77-7.79,21.76S79,295.77,82.1,296s4.4-11.23,4.85-18.61S89.34,260.48,82.73,260.13Z" fill="#fff7f1"/><path d="M82.5,298.44h-.56c-4.77-.3-7.06-6.09-9.41-16-1.79-7.5-.15-17,3.73-21.65a7.83,7.83,0,0,1,6.6-3.17h0a6.8,6.8,0,0,1,5,2.29c2.8,3.22,2.32,8.86,1.85,14.31-.1,1.14-.19,2.21-.26,3.25-1,16.71-3.74,19.13-4.65,19.92A3.9,3.9,0,0,1,82.5,298.44Zm-.24-35.83A3.29,3.29,0,0,0,80.07,264c-2.88,3.45-4.12,11.38-2.71,17.32.79,3.31,2.7,10.65,4.42,12,.87-1.57,2.12-6.62,2.69-16.08.06-1.1.16-2.26.26-3.38.34-4,.77-9-.65-10.62a1.86,1.86,0,0,0-1.48-.59h-.34Z" fill="#71695d"/><path d="M109.57,118.82c18,30.41,42.36,90.77,42.89,105.4s-6.27,27.83-15,34.19S96.7,278.24,69.32,274.88,16,258.24,9.72,248.6s-4.25-25,2.63-36.68,39.54-65.44,44.2-90.37c1.12-9,10.4-17.91,14.87-12.92S70,128.45,80.28,129.82C90.73,131.2,100.56,129,109.57,118.82Z" fill="#ffe789"/><path d="M86.21,277.55a83.71,83.71,0,0,1-17.2-.21c-28.34-3.48-54.61-17-61.37-27.38-6.34-9.78-5.29-25.94,2.57-39.3.49-.85,1.12-1.91,1.87-3.16,9.33-15.74,37.72-63.61,42-86.33.9-7,6.28-14.35,11.78-16.07A6.8,6.8,0,0,1,73.27,107c2.34,2.62,2.53,6.64,2.71,10.53.3,6.46.82,9.35,4.63,9.85,11.16,1.49,19.52-1.65,27.1-10.19a2.49,2.49,0,0,1,4,.39c18,30.52,42.68,91.27,43.23,106.58.52,14.35-5.91,28.93-16,36.29C131.84,265.56,109.45,275.58,86.21,277.55ZM68.08,109.69a3.2,3.2,0,0,0-.72.15c-3.3,1-7.66,6.51-8.35,12a.77.77,0,0,1,0,.15c-4.41,23.56-33.18,72.08-42.64,88-.74,1.25-1.37,2.31-1.86,3.15-6.94,11.8-8,25.81-2.68,34.07S41.69,269,69.62,272.41c26.66,3.27,58.29-10.13,66.38-16,7.34-5.35,14.51-17.34,14-32.09-.47-12.86-22.46-69.08-40.9-101.39C101,130.85,91.62,133.83,80,132.28c-8.32-1.11-8.68-8.87-8.95-14.55-.14-3-.28-6.15-1.44-7.44A1.63,1.63,0,0,0,68.08,109.69Z" fill="#71695d"/><path d="M18.42,216.27c-3.47.43-6.91,2.3-10.23,4.88C5,230.88,5,241.36,9.72,248.6c6.26,9.64,32.21,22.91,59.6,26.27s59.41-10.11,68.14-16.47,15.53-19.56,15-34.19c-.13-3.43-1.65-9.54-4-17.05-9.47-3.42-14.75,2.24-16.37,16.71-1.93,17.19-20.1,28.15-30.91,18.86s-22.88-12.29-32.65-2.26-18.41,23.65-31.43-7.29C31.38,219.64,24.88,215.48,18.42,216.27Z" fill="#ffd06a"/><path d="M86.21,277.55a83.71,83.71,0,0,1-17.2-.21c-28.34-3.48-54.61-17-61.37-27.38-6.34-9.78-5.29-25.94,2.57-39.3.49-.85,1.12-1.91,1.87-3.16,9.33-15.74,37.72-63.61,42-86.33.9-7,6.28-14.35,11.78-16.07A6.8,6.8,0,0,1,73.27,107c2.34,2.62,2.53,6.64,2.71,10.53.3,6.46.82,9.35,4.63,9.85,11.16,1.49,19.52-1.65,27.1-10.19a2.49,2.49,0,0,1,4,.39c18,30.52,42.68,91.27,43.23,106.58.52,14.35-5.91,28.93-16,36.29C131.84,265.56,109.45,275.58,86.21,277.55ZM68.08,109.69a3.2,3.2,0,0,0-.72.15c-3.3,1-7.66,6.51-8.35,12a.77.77,0,0,1,0,.15c-4.41,23.56-33.18,72.08-42.64,88-.74,1.25-1.37,2.31-1.86,3.15-6.94,11.8-8,25.81-2.68,34.07S41.69,269,69.62,272.41c26.66,3.27,58.29-10.13,66.38-16,7.34-5.35,14.51-17.34,14-32.09-.47-12.86-22.46-69.08-40.9-101.39C101,130.85,91.62,133.83,80,132.28c-8.32-1.11-8.68-8.87-8.95-14.55-.14-3-.28-6.15-1.44-7.44A1.63,1.63,0,0,0,68.08,109.69Z" fill="#71695d"/><path d="M82.91,101.41c-7.24.3-17.55,1.65-21.28,20.92s2.59,38,23.55,35.58,35.12-17.83,27.6-32S90.15,101.11,82.91,101.41Z" fill="#fff7f1"/><path d="M84.42,160.48c-8,.68-14.63-1.58-19.24-6.56-6.41-6.92-8.6-18.61-6-32.07C63,102.36,73.25,99.33,82.81,98.93c8.37-.34,24.25,10.84,32.16,25.79a19.09,19.09,0,0,1,0,18.33c-4.81,9.15-16.11,15.79-29.47,17.33ZM80.67,104c-5.75.49-13.51,2.8-16.6,18.77-2.27,11.71-.49,22.08,4.75,27.75,3.75,4,9.15,5.69,16.07,4.89,11.58-1.33,21.65-7.1,25.65-14.7a14.11,14.11,0,0,0,0-13.7,54,54,0,0,0-14.37-16.87c-5-3.94-10.23-6.4-13.2-6.28h0C82.29,103.92,81.5,104,80.67,104Z" fill="#71695d"/><path d="M106.79,185.84c5.82,1.57,24.55,9.28,21.4,17.62s-26.28,3.93-30.84-2.21S101,184.26,106.79,185.84Z" fill="#fff7f1"/><path d="M117.64,210.52c-8.16,0-18.78-3.07-22.28-7.79-2.71-3.64-2.4-8.84.82-13.56,2.51-3.69,7-6.89,11.26-5.73,3.76,1,18.6,6.38,22.57,14.13a8.18,8.18,0,0,1,.5,6.76c-.84,2.25-3.14,5.1-9.25,6A25.83,25.83,0,0,1,117.64,210.52Zm-12-22.36c-1.58,0-3.75,1.53-5.3,3.81s-2.63,5.54-1,7.8c2.42,3.25,13.57,6.67,21.23,5.6,1.68-.23,4.58-.91,5.3-2.79a3.17,3.17,0,0,0-.28-2.74c-2.52-4.92-13.82-10.09-19.45-11.61h0A2.43,2.43,0,0,0,105.59,188.16Z" fill="#71695d"/><path d="M60.35,131.18c-9.61,2.92-14.16,14.47-15.26,29.89s-3.62,45,10.23,50.83,41.69,6.76,60.1-19,11.34-31.22,6.45-33.83c-6.76-3.62-22.69-8.46-35.62-15.28C73.91,137.23,69.16,128.5,60.35,131.18Z" fill="#ffe789"/><path d="M101.14,150.48c-.13,8.69,4.74,21.2-5.76,18.34-15.45-4.21-18.47,4-16.27,16.25s-16,6.82-21.66,3.2c-3.64-2.33-8.94-4.37-13.05-2,.6,11.54,3.14,22.34,10.92,25.61,13.84,5.82,41.7,6.76,60.1-19s11.34-31.21,6.45-33.83C117.61,156.75,109.64,153.91,101.14,150.48Z" fill="#ffd06a"/><path d="M73.51,217.76a50.93,50.93,0,0,1-19.16-3.57c-15.12-6.36-13.06-35-11.83-52.05l.09-1.24c1.29-18,7.17-29.11,17-32.1,6.89-2.09,11.73,1.57,17.33,5.81a74.49,74.49,0,0,0,10.45,6.94,217,217,0,0,0,22.66,9.81,131.22,131.22,0,0,1,13,5.48c1.62.86,5.39,2.88,6.5,7.66,1.53,6.51-2.43,16.26-12.1,29.8C104.48,212.47,87.46,217.76,73.51,217.76Zm-10-84.6a8.26,8.26,0,0,0-2.47.4h0c-9.74,2.95-12.72,16.69-13.5,27.69l-.09,1.25c-1.07,14.72-3,42.13,8.8,47.11s38.8,7.49,57.12-18.19c10.79-15.13,12.11-22.38,11.31-25.79-.51-2.16-1.91-3.29-4-4.41-2.75-1.47-7.23-3.21-12.42-5.23a223.39,223.39,0,0,1-23.19-10.05A78.45,78.45,0,0,1,74,138.57C69.43,135.14,66.66,133.16,63.54,133.16Z" fill="#71695d"/><path d="M88.72,24c1.13-5.25,18-22,23.26-20.35s8.63,24.58,6.66,29.55-10.41,5.34-17.35,2.15S87.6,29.21,88.72,24Z" fill="#978f83"/><path d="M110.24,39.85a24.44,24.44,0,0,1-10-2.29l-.65-.3c-7.29-3.34-14.81-6.79-13.31-13.83h0C87.41,18.25,98.51,7,105.49,2.92c3-1.74,5.37-2.29,7.25-1.68s3.29,2.2,4.61,5c3.49,7.39,5.51,23,3.6,27.82a8.58,8.58,0,0,1-5,4.79A15.34,15.34,0,0,1,110.24,39.85ZM91.15,24.47c-.62,2.92,3.76,5.17,10.52,8.27l.66.31c4.11,1.88,8.83,2.36,11.76,1.19a3.7,3.7,0,0,0,2.24-2c.65-1.63.57-7.58-.69-14.33C114.1,9.69,112,6.31,111.21,6c-.84-.16-4.67,1.39-10.95,7.25-5.17,4.83-8.75,9.61-9.11,11.26Z" fill="#71695d"/><path d="M26.21,94.19C28.47,78.88,34,46.06,61,34.21c18-7.91,40.35-9.86,54.87,1.3,9.14,7,18.57,27,20.54,43.24S133,121.6,117.55,129.5c-17.38,8.87-71.15,2.52-83.94-7.23C25.27,115.92,23.94,109.49,26.21,94.19Z" fill="#978f83"/><path d="M90.61,136.18c-22.5,0-49.51-5.07-58.51-11.93-9.82-7.49-10.52-15.78-8.35-30.43h0C25.74,80.37,31,44.65,60,31.93a76.68,76.68,0,0,1,29.73-6.7c10.91-.11,20.46,2.78,27.66,8.31,9.59,7.38,19.43,27.94,21.49,44.91,2,16.32-3.08,44.53-20.2,53.26C112.55,134.84,102.18,136.18,90.61,136.18ZM28.66,94.55c-2.2,14.87-.87,20.17,6.45,25.75,5.64,4.3,21.31,8.35,39,10.1,18.73,1.84,34.94.65,42.32-3.11,4.47-2.28,10.66-7.74,14.74-20.77A69.26,69.26,0,0,0,134,79.05c-1.89-15.57-11-35-19.59-41.57C104.76,30.1,86,26,62,36.48,35.54,48.09,30.54,81.84,28.66,94.55Z" fill="#71695d"/><path d="M117.16,54.41c10.11,14.65,20.94,55,1.67,72.62C103.49,141,49,141,43.41,114.26S54.53,42.74,79.73,40.52,109.1,42.74,117.16,54.41Z" fill="#fff7f1"/><path d="M85.32,138.75A73.86,73.86,0,0,1,63,135.51c-12.42-4-20-11.19-22-20.74C37.13,96.3,43.44,70,55.65,53.53c7-9.37,15.21-14.72,23.86-15.49,26.56-2.34,31.36,2.9,39.69,15h0c4.9,7.09,10.59,21.08,12.28,36.35,2.45,22.14-4.62,33.71-11,39.51C113.56,135.19,99.58,138.75,85.32,138.75Zm5.35-96.31c-3,0-6.58.19-10.72.55-9.1.8-16.07,7.79-20.31,13.5-11.27,15.17-17.33,40.33-13.8,57.27,2,9.72,11.29,14.62,18.7,17,17.64,5.71,43.21,3,52.61-5.59,5.51-5,11.61-15.23,9.39-35.3-1.59-14.4-6.88-27.49-11.42-34.07h0C109,47,105.88,42.44,90.67,42.44Z" fill="#71695d"/><path d="M128.46,75.54c-3.52,7.78-16.85,18.52-16.25,2.93-8,10.6-9.43,5.5-8-2.17C96.51,96.13,81.1,118,74.1,130.8c-9.24,16.93-19,24.48-36.77,26.85C27.07,159,14.88,153.5,9.4,145.81c-4.85-6.8-7.22-18.94-2.17-30.73,3.72-8.66,16-16.7,26.3-15.47,0,0,5.67-29.69,17.89-47.83C58.08,41.9,73.4,30.71,85.36,31c13.46.37,24.19,1,32.34,11.36S132,67.76,128.46,75.54Z" fill="#978f83"/><path d="M107.76,55.23c-.23-.14-.73.45-1.54,1.88-6.51,11.38-30.43,40.51-44.09,43.12s-16.59.8-26-.66c14.32,5.37,19.36,21.64,13.67,30.74s-10.91,14.16-20.5,12.37c-.74-.14-1.6-.27-2.39-.4a4.74,4.74,0,0,0-1-1.36c-5.5-5.68-4.81-15.46,3.27-20.14s22.81,7.38,15-6c-3.48-5.94-5.41-5.88-13.89-6.24-6.81-.28-9.5,2.84-14.18,7.66S13,129,16.92,135a24.06,24.06,0,0,0,7.72,6.93c-8.25-1.34-17.37-2.21-17,1a22.5,22.5,0,0,0,1.76,2.93c5.47,7.7,17.68,13.2,27.94,11.83,17.75-2.37,27.53-9.91,36.76-26.84,5.21-9.55,15.08-24.1,23-39.09C104.11,71.54,108.81,55.84,107.76,55.23Z" fill="#83796a"/><path d="M34.53,159.91c-11,0-22.36-5.92-27.15-12.66-5.53-7.75-11-18.65-4-34.16C7.62,103.76,19.73,95,33.9,97.16c5,.75,11.91,4.39,16.26,10.83,4,5.9,5.14,13.12,3.31,20.88C50,143.79,33.92,147.21,28.42,146c-4.72-1-11.52-4.54-15.15-10.94A17.81,17.81,0,0,1,12,120.28c1.75-5.26,11.65-17,24.61-13.63,5.09,1.33,9.3,5.59,11.86,12,.34.84.64,1.71.91,2.58a19.27,19.27,0,0,0-3.31-10.43c-3.49-5.17-9.13-8.13-12.89-8.7-11.75-1.78-21.76,5.4-25.22,13.06-5.91,13.1-1.82,21.8,3.48,29.24,4.71,6.61,18.07,12.41,28.25,10,16.86-4,22.31-9.57,31.56-22.3,9-12.29,23.2-37.46,30.63-56.67a2.48,2.48,0,0,1,4.76,1.34,19.84,19.84,0,0,0-.41,4.71,25.75,25.75,0,0,0,4-4.47,2.48,2.48,0,0,1,4.46,1.59c-.15,4,.71,5.25,1.18,5.37,2.16.5,8.08-4.46,10.33-9.43a2.49,2.49,0,1,1,4.53,2c-2.61,5.75-10.31,13.55-16,12.21a6,6,0,0,1-4.35-4.37c-2.12,2-4.33,3.2-6.46,2.26a4,4,0,0,1-1.08-.71c-8,17.92-19.77,38.3-27.59,49.05-4.93,6.78-9,11.74-14.07,15.54s-11.48,6.56-20.37,8.67A27.42,27.42,0,0,1,34.53,159.91ZM32,111c-8.16,0-14.34,7.82-15.34,10.82a12.82,12.82,0,0,0,.9,10.75c2.64,4.67,7.88,7.65,11.9,8.54,2,.45,10.23-.35,15.4-6.11a2.12,2.12,0,0,1,.23-.48c1.08-1.75,1.11-8.11-1.28-14.08-1.14-2.83-3.75-7.77-8.51-9A13.22,13.22,0,0,0,32,111Z" fill="#71695d"/><path d="M75,35.19c1-7.33-26-20.93-31-15.92S33.91,68.36,41,69,54.65,56.21,59.43,50.72C64,45.51,74,42.62,75,35.19Z" fill="#fff4e3"/><path d="M41.46,71.45l-.66,0c-1.35-.12-3.2-.9-4.36-4-2.54-6.83-1-22.14-.42-26.67s2.57-19.51,6.2-23.2c4.3-4.39,15.16.2,19.63,2.37,2.77,1.35,16.51,8.43,15.57,15.6-.77,5.86-5.8,9.24-10.23,12.21a30.43,30.43,0,0,0-5.89,4.63c-1.17,1.35-2.53,3.29-4,5.35C52.8,64.16,47.7,71.45,41.46,71.45Zm5.92-50.79a2.51,2.51,0,0,0-1.61.35C43.46,23.37,39.61,43.2,40,57.82c.18,6.28,1.14,8.2,1.46,8.67,3.66,0,8.33-6.73,11.76-11.63,1.52-2.18,3-4.23,4.3-5.77a34.24,34.24,0,0,1,6.87-5.49c3.91-2.63,7.6-5.1,8.07-8.73h0c.19-1.43-3.93-6.16-12.81-10.49C54,21.62,49.65,20.66,47.38,20.66Z" fill="#71695d"/><path d="M102,100.93c-2.81-.13-4.73,6-5,8.43-.69,6.55,9.09,6.47,8.6,0C105.34,105.25,104.87,101.07,102,100.93Z" fill="#71695d"/><path d="M46.34,21c6.7,2.57,17.39,20.2,15,27.87C72.26,41.51,76.89,35.4,73.66,31.47S61.3,21.62,56.11,19.84C46.89,16.68,39.64,18.37,46.34,21Z" fill="#978f83"/><path d="M61.34,51.31A2.49,2.49,0,0,1,59,48.08c1.93-6.2-7.85-22.63-13.52-24.82-2.36-.9-5-2.53-4-5.14,1.58-4.33,11.72-1.92,15.5-.63,5.31,1.82,15,7.9,18.66,12.41a6.77,6.77,0,0,1,1.49,5.41c-.66,4.46-5.35,9.55-14.35,15.58A2.48,2.48,0,0,1,61.34,51.31ZM51.05,21c5.74,4.89,11.73,15.11,12.89,22.89,6.86-5.21,8-8.2,8.22-9.34a1.81,1.81,0,0,0-.42-1.54C68.9,29.58,60.3,23.9,55.31,22.19A32,32,0,0,0,51.05,21Z" fill="#71695d"/><path d="M122.65,117.83c.82.28,1.33.69.14,2.51s-3.65,5.14-5,5.15-2.56,0-1.68-2.19,4.87-5.17,4.87-5.17" fill="#e47b7b"/><path d="M115.69,127.91c-2.27-3.16-1.84-5.56-1.08-7,1.92-3.68,7.74-4.93,11.2-4.9l0,3.32c-3.15-.06-7.21,1.2-8.21,3.12-.18.34-.73,1.39.83,3.55Z" fill="#71695d"/><path d="M99.79,120.29c-.44.33-.5,1-.48,1.86-1.31,0-2,.21-2,1.09s.84,1,2.07.89a9.23,9.23,0,0,1-.15,2.27v0c-1.43,0-2.13.18-2.14,1.1,0,.74.69.93,1.74.91-.27,1.51-.19,2.19.85,2s1.19-1,1.29-2.23l.82-.11c.52-.07,1.08-.1,1.65-.15-.26,1.48-.18,2.16.86,2s1.18-1,1.28-2.2c1.48-.16,2.66-.43,2.68-1.13a.81.81,0,0,0-.14-.54c-.35-.45-1.28-.32-2.47-.11,0-.19,0-.36,0-.55,0-.62,0-1.29.09-2,1.5-.16,2.71-.41,2.73-1.12a.87.87,0,0,0-.14-.54c-.35-.45-1.3-.33-2.5-.1,0-1.28-.12-2.24-.84-2.15a1.3,1.3,0,0,0-.6.22c-.52.39-.54,1.22-.48,2.26a11.57,11.57,0,0,1-2.11.14l-.59,0c0-1.26-.12-2.22-.84-2.13A1.2,1.2,0,0,0,99.79,120.29Zm1.36,3.68.87-.11c.62-.09,1.3-.14,2-.19a10.05,10.05,0,0,1-.15,2.24c0,.17-.06.28-.09.44a11.33,11.33,0,0,1-2.17.16l-.55,0V126C101.05,125.33,101.1,124.65,101.15,124Z" fill="#e47b7b"/><path d="M99.79,120.29c-.44.33-.5,1-.48,1.86-1.31,0-2,.21-2,1.09s.84,1,2.07.89a9.23,9.23,0,0,1-.15,2.27v0c-1.43,0-2.13.18-2.14,1.1,0,.74.69.93,1.74.91-.27,1.51-.19,2.19.85,2s1.19-1,1.29-2.23l.82-.11c.52-.07,1.08-.1,1.65-.15-.26,1.48-.18,2.16.86,2s1.18-1,1.28-2.2c1.48-.16,2.66-.43,2.68-1.13a.81.81,0,0,0-.14-.54c-.35-.45-1.28-.32-2.47-.11,0-.19,0-.36,0-.55,0-.62,0-1.29.09-2,1.5-.16,2.71-.41,2.73-1.12a.87.87,0,0,0-.14-.54c-.35-.45-1.3-.33-2.5-.1,0-1.28-.12-2.24-.84-2.15a1.3,1.3,0,0,0-.6.22c-.52.39-.54,1.22-.48,2.26a11.57,11.57,0,0,1-2.11.14l-.59,0c0-1.26-.12-2.22-.84-2.13A1.2,1.2,0,0,0,99.79,120.29Zm1.36,3.68.87-.11c.62-.09,1.3-.14,2-.19a10.05,10.05,0,0,1-.15,2.24c0,.17-.06.28-.09.44a11.33,11.33,0,0,1-2.17.16l-.55,0V126C101.05,125.33,101.1,124.65,101.15,124Z" fill="#e47b7b"/><path d="M99.79,120.29c-.44.33-.5,1-.48,1.86-1.31,0-2,.21-2,1.09s.84,1,2.07.89a9.23,9.23,0,0,1-.15,2.27v0c-1.43,0-2.13.18-2.14,1.1,0,.74.69.93,1.74.91-.27,1.51-.19,2.19.85,2s1.19-1,1.29-2.23l.82-.11c.52-.07,1.08-.1,1.65-.15-.26,1.48-.18,2.16.86,2s1.18-1,1.28-2.2c1.48-.16,2.66-.43,2.68-1.13a.81.81,0,0,0-.14-.54c-.35-.45-1.28-.32-2.47-.11,0-.19,0-.36,0-.55,0-.62,0-1.29.09-2,1.5-.16,2.71-.41,2.73-1.12a.87.87,0,0,0-.14-.54c-.35-.45-1.3-.33-2.5-.1,0-1.28-.12-2.24-.84-2.15a1.3,1.3,0,0,0-.6.22c-.52.39-.54,1.22-.48,2.26a11.57,11.57,0,0,1-2.11.14l-.59,0c0-1.26-.12-2.22-.84-2.13A1.2,1.2,0,0,0,99.79,120.29Zm1.36,3.68.87-.11c.62-.09,1.3-.14,2-.19a10.05,10.05,0,0,1-.15,2.24c0,.17-.06.28-.09.44a11.33,11.33,0,0,1-2.17.16l-.55,0V126C101.05,125.33,101.1,124.65,101.15,124Z" fill="#e47b7b"/></svg>