<svg xmlns="http://www.w3.org/2000/svg" xmlns:xlink="http://www.w3.org/1999/xlink" viewBox="0 0 170.68 163.02"><defs><linearGradient id="a" x1="85.34" y1="163.02" x2="85.34" gradientUnits="userSpaceOnUse"><stop offset="0" stop-color="#93c4b6"/><stop offset="1" stop-color="#167a9e"/></linearGradient></defs><path d="M91.67,3.94l20.9,42.34a7.08,7.08,0,0,0,5.32,3.87l46.73,6.79a7.06,7.06,0,0,1,3.92,12l-33.82,33a7.08,7.08,0,0,0-2,6.25l8,46.54a7.07,7.07,0,0,1-10.25,7.45l-41.79-22a7.09,7.09,0,0,0-6.58,0l-41.8,22A7.07,7.07,0,0,1,30,154.74l8-46.54A7.08,7.08,0,0,0,36,102L2.14,69a7.06,7.06,0,0,1,3.92-12l46.73-6.79a7.08,7.08,0,0,0,5.32-3.87L79,3.94A7.06,7.06,0,0,1,91.67,3.94Z" fill="url(#a)"/></svg>