<svg xmlns="http://www.w3.org/2000/svg" xmlns:xlink="http://www.w3.org/1999/xlink" viewBox="0 0 170.68 163.02"><defs><linearGradient id="a" y1="81.51" x2="170.68" y2="81.51" gradientUnits="userSpaceOnUse"><stop offset="0" stop-color="#ffe75a"/><stop offset="1" stop-color="#f4b821"/></linearGradient></defs><path d="M85.34,13.7l18.26,37A17,17,0,0,0,116.45,60L157.3,66,127.74,94.79a17.06,17.06,0,0,0-4.91,15.1l7,40.68L93.28,131.36a17.06,17.06,0,0,0-15.88,0L40.87,150.57l7-40.68a17.05,17.05,0,0,0-4.9-15.1L13.38,66,54.23,60a17,17,0,0,0,12.84-9.33l18.27-37m0-13.7A7,7,0,0,0,79,3.94L58.11,46.28a7.08,7.08,0,0,1-5.32,3.87L6.06,56.94A7.06,7.06,0,0,0,2.14,69L36,102a7.08,7.08,0,0,1,2,6.25l-8,46.54A7.09,7.09,0,0,0,37,163a7,7,0,0,0,3.28-.83l41.8-22a7.09,7.09,0,0,1,6.58,0l41.79,22a7,7,0,0,0,10.25-7.45l-8-46.54a7.08,7.08,0,0,1,2-6.25l33.82-33a7.06,7.06,0,0,0-3.92-12l-46.73-6.79a7.08,7.08,0,0,1-5.32-3.87L91.67,3.94A7,7,0,0,0,85.34,0Z" fill="url(#a)"/></svg>