<svg xmlns="http://www.w3.org/2000/svg" xmlns:xlink="http://www.w3.org/1999/xlink" viewBox="0 0 142.74 145.73"><defs><linearGradient id="a" y1="72.87" x2="142.74" y2="72.87" gradientUnits="userSpaceOnUse"><stop offset="0" stop-color="#d6abbd"/><stop offset="1" stop-color="#8c579e"/></linearGradient></defs><path d="M89.35,11.29l12.74,19.78a16.17,16.17,0,0,0,7.78,6.35L131.8,46l-7.53,22.29a16.1,16.1,0,0,0-.12,10l7,22.47-22.12,8a16.13,16.13,0,0,0-7.92,6.17l-13.2,19.48-20.06-12.3a16.25,16.25,0,0,0-8.5-2.4c-.42,0-.85,0-1.27,0L34.63,121.6l-2.9-23.35a16.09,16.09,0,0,0-4.25-9.1L11.43,72,27.88,55.13a16.18,16.18,0,0,0,4.47-9l3.43-23.28,23.41,2.38a15.19,15.19,0,0,0,1.65.08A16.3,16.3,0,0,0,69,23.11L89.35,11.29M90.55,0a6.18,6.18,0,0,0-3.14.85L64,14.46a6.26,6.26,0,0,1-3.15.85c-.22,0-.43,0-.64,0L33.25,12.55a4.68,4.68,0,0,0-.64,0,6.28,6.28,0,0,0-6.2,5.36l-4,26.8a6.23,6.23,0,0,1-1.72,3.47L1.79,67.5a6.27,6.27,0,0,0-.1,8.67L20.17,96a6.3,6.3,0,0,1,1.64,3.51l3.33,26.89a6.26,6.26,0,0,0,6.22,5.49h.49l27-2.11.49,0a6.23,6.23,0,0,1,3.27.93l23.1,14.16A6.28,6.28,0,0,0,94.19,143l15.19-22.43a6.37,6.37,0,0,1,3.06-2.38l25.47-9.23a6.27,6.27,0,0,0,3.85-7.76L133.7,75.32a6.31,6.31,0,0,1,0-3.87l8.67-25.67a6.27,6.27,0,0,0-3.67-7.85L113.5,28.11a6.23,6.23,0,0,1-3-2.45L95.83,2.88A6.25,6.25,0,0,0,90.55,0Z" fill="url(#a)"/></svg>