<?xml version="1.0" encoding="utf-8"?>
<!-- Generator: Adobe Illustrator 22.0.1, SVG Export Plug-In . SVG Version: 6.00 Build 0)  -->
<svg version="1.1" id="レイヤー_1" xmlns="http://www.w3.org/2000/svg" xmlns:xlink="http://www.w3.org/1999/xlink" x="0px"
	 y="0px" viewBox="0 0 123.6 118" style="enable-background:new 0 0 123.6 118;" xml:space="preserve">
<style type="text/css">
	.st0{fill:url(#SVGID_1_);}
</style>
<linearGradient id="SVGID_1_" gradientUnits="userSpaceOnUse" x1="41.4138" y1="104.6766" x2="92.3878" y2="-3.4158" gradientTransform="matrix(1 0 0 -1 0 118)">
	<stop  offset="0" style="stop-color:#FFDE4F"/>
	<stop  offset="1" style="stop-color:#FFBB2E"/>
</linearGradient>
<path class="st0" d="M57.4,4.2c2.4-4.9,6.4-4.9,8.9,0l11.5,23.5c2.4,4.9,8.9,9.6,14.3,10.4l25.9,3.8c5.5,0.7,6.8,4.5,2.8,8.4
	l-18.7,18.2c-4,3.9-6.4,11.5-5.5,16.9l4.4,25.8c0.9,5.4-2.3,7.8-7.2,5.2l-23.1-12.2c-4.9-2.6-12.9-2.6-17.7,0l-23.2,12.2
	c-4.9,2.6-8.1,0.2-7.2-5.2L27,85.4c0.9-5.4-1.5-13-5.5-16.8L2.8,50.2c-3.9-3.8-2.7-7.6,2.7-8.4L31.4,38c5.4-0.8,11.9-5.5,14.3-10.4
	L57.4,4.2z"/>
</svg>
